<?xml version="1.0" encoding="UTF-8"?>
<!-- Generator: Adobe Illustrator 27.1.1, SVG Export Plug-In . SVG Version: 6.00 Build 0)  -->
<svg xmlns="http://www.w3.org/2000/svg" xmlns:xlink="http://www.w3.org/1999/xlink" version="1.2" id="Calque_1" x="0px" y="0px" viewBox="0 0 1193 411" overflow="visible" xml:space="preserve">
<g>
	<path d="M363.6,134.2h-72.4c1.6-2,2.7-9.6,2.7-38.3v-36c0-28.7-1.1-36.4-2.7-38.3h28.5c-1.6,2-2.7,9.6-2.7,38.3v71.7h9.3   c23.2,0,31.9-20.3,37.3-30.8V134.2z"></path>
	<path d="M407.1,136c-54,0-57.4-92.7,0.5-92.7c16,0,34.4,8.6,34.4,26.7c0,21.2-26,22.5-40.6,28.3c-8.4,3.2-9.6,10-3.7,16.6   c4.1,4.6,11.6,7.8,19.3,7.8c9.4,0,19.6-4.8,25-18.4C439.5,125.1,423.8,136,407.1,136z M391.9,103.4c7.7-14.1,29.8-13.4,29.8-40.5   c0-6.8-5-16.9-14.1-16.9C390.2,46,383.4,80.2,391.9,103.4z"></path>
	<path d="M511,111.6c0,18.4-21.9,24.4-36.7,24.4c-15.9,0-32.3-7-32.1-20.3c0-7.5,5.3-11.2,10.9-11.2c5.2,0,10.3,3.6,10.3,10.7   c-0.2,12.5,6.4,17.8,16,17.8c8.4,0,12.5-6.2,12.5-13.9c0-21.6-48.8-23.5-48.8-51.9c0-16,17.3-23.9,34.1-23.9c15.7,0,31,7,31,20.5   c0,7.5-5.3,11.2-10.9,11.2c-5.2,0-10.3-3.6-10.3-10.7c0.2-9.3-4.6-18-14.8-18c-5.9,0-12.1,3.7-12.1,10.2   C460,80.2,511,84.9,511,111.6z"></path>
	<path d="M59.9,209.7c0,63.1,34.8,94.8,69.3,94.8c22.5,0,44.9-13.9,57.3-41.6c-4.9,41.6-41.2,68-78.8,68   c-53.3,0-89.9-49.3-90.2-98.5c0-61.3,40.3-102.2,100.7-102.2c33.6,0,64,15.1,64,39.4c0,12.6-9.9,19.1-19.7,19.1   s-19.7-6.5-19.7-19.1c0-24-12.6-34.8-29.2-34.8C74.4,134.9,59.9,176.5,59.9,209.7z"></path>
	<path d="M192.6,327.9c2.8-3.4,4.6-16.6,4.6-66.2V159.9c0-23.7-4-28.6-4.6-31.1c5.2,0,23.4-3.4,44.6-19.4v152.4   c0,49.6,1.8,62.8,4.6,66.2H192.6z"></path>
	<path d="M245.2,292.9c0-52.6,103.1-48.3,102.8-93.3c0-13.5-13.9-23.1-26.5-23.1c-18.2,0-23.1,15.4-23.1,30.8   c0,12.3-8.9,18.5-17.9,18.5c-9.5,0-18.8-6.5-18.8-19.4c0-25.2,30.2-35.4,50.2-35.4c29.9,0,61.6,17.9,61.6,62.8v55.1   c0,20.6,1.8,35.1,10.2,35.1c2.2,0,4.3-0.9,7.1-2.5c-5.8,6.8-14.5,9.5-23.4,9.5c-20.3,0-28.6-10.8-31.7-24.6   c-13.5,17.2-31.1,24.6-47.1,24.6C266.5,331,245.2,316.9,245.2,292.9z M333.6,276.5v-46.5c-12.3,10.2-46.5,21.9-46.5,52.3   c0,18.8,11.7,29.6,25.2,29.6c9.9,0,16.6-4.3,22.5-10.2C333.6,293.5,333.6,284.8,333.6,276.5z"></path>
	<path d="M395.8,390.4c2.8-3.4,4.6-16.6,4.6-66.2v-99.7c0-23.7-4-28.6-4.6-31.1c5.2,0,23.4-3.4,44.6-19.4v11.7   c12-8.9,29.6-14.8,43.1-14.8c89.6-0.3,90.2,160.1-8,160.1c-13.5,0-27.4-3.4-35.1-9.2c0,51.7,1.8,65.3,4.6,68.6H395.8z M440.4,290.7   c0,16,8.6,35.4,29.2,35.4c58.5,0,50.5-142.2-6.8-142.2c-5.2,0-16.9,2.5-22.5,6.5V290.7z"></path>
	<path d="M557.7,327.9c2.8-3.4,4.6-16.6,4.6-66.2v-37.2c0-23.7-4-28.6-4.6-31.1c5.2,0,23.4-3.4,44.6-19.4v87.7   c0,49.6,1.8,62.8,4.6,66.2H557.7z M584.5,121.7c12.3,0,22.5,9.9,22.5,21.9c0,12-10.2,21.9-22.5,21.9c-12,0-22.2-9.9-22.2-21.9   C562.3,131.5,572.5,121.7,584.5,121.7z"></path>
	<path d="M761.2,174c12.3,0,38.2-9.2,61.3-37.6V174h20.9v4.6h-20.9v120.7c0,7.1-0.3,22.2,9.5,22.2c4.3,0,8.9-2.5,12.3-4.6   C834.1,329.8,820.9,331,816,331c-33.9,0-33.6-30.5-33.6-56.6V195c0-14.5-2.2-16.3-21.2-16.3V174z"></path>
	<path d="M844.6,174c12.3,0,38.2-9.2,61.3-37.6V174h20.9v4.6h-20.9v120.7c0,7.1-0.3,22.2,9.5,22.2c4.3,0,8.9-2.5,12.3-4.6   c-10.2,12.9-23.4,14.2-28.3,14.2c-33.9,0-33.6-30.5-33.6-56.6V195c0-14.5-2.2-16.3-21.2-16.3V174z"></path>
	<path d="M997,331c-93.3,0-99.1-160.1,0.9-160.1c27.7,0,59.4,14.8,59.4,46.2c0,36.6-44.9,38.8-70.2,48.9   c-14.5,5.5-16.6,17.2-6.5,28.6c7.1,8,20,13.5,33.2,13.5c16.3,0,33.9-8.3,43.1-31.7C1053,312.2,1025.9,331,997,331z M970.8,274.7   c13.2-24.3,51.4-23.1,51.4-69.9c0-11.7-8.6-29.2-24.3-29.2C967.7,175.6,956,234.7,970.8,274.7z"></path>
	<path d="M1176.4,288.8c0,31.7-37.9,42.2-63.4,42.2c-27.4,0-55.7-12-55.4-35.1c0-12.9,9.2-19.4,18.8-19.4c8.9,0,17.9,6.2,17.9,18.5   c-0.3,21.5,11.1,30.8,27.7,30.8c14.5,0,21.5-10.8,21.5-24c0-37.2-84.3-40.6-84.3-89.6c0-27.7,29.9-41.2,58.8-41.2   c27.1,0,53.6,12,53.6,35.4c0,12.9-9.2,19.4-18.8,19.4c-8.9,0-17.9-6.2-17.9-18.5c0.3-16-8-31.1-25.5-31.1   c-10.2,0-20.9,6.5-20.9,17.5C1088.4,234.7,1176.4,242.7,1176.4,288.8z"></path>
	<path d="M691.3,332.4c-0.4,0-0.8,0-1.1,0v4.6c0.5,0,1,0,1.4,0c98.8,0,98.8-160.1,0-160.1c-0.5,0-1,0-1.4,0v4.6h0.5   C734.8,181.6,740.3,332.4,691.3,332.4z"></path>
	<path d="M691.5,181.6c0.4,0,0.8,0,1.1,0V177c-0.5,0-1,0-1.4,0c-98.8,0-98.8,160.1,0,160.1c0.5,0,1,0,1.4,0v-4.6h-0.5   C648.1,332.4,642.6,181.6,691.5,181.6z"></path>
	<path fill="#57BE69" d="M697.6,187.7c-9-0.4-24.3-1.2-36,14.9c-11.3,18.4,0.4,66.9,1.2,70.8c0.8,3.9,2.7,11.3,3.5,13.7   c0.8,2.3,6.6,19.6,23.1,21.9c21.1,0,26.6-2,31.3-3.1s14.6-6.6,20.3-12.9c3.8-2.6,11.2-11,11.7-22.7c0.6-12.9-6.2-29.5-14.5-45   C730.5,210.6,714,189.6,697.6,187.7z"></path>
	<path fill="#98CA7C" d="M708.4,191c0,0-4.7-3.9-11.3-4.3c-11.3,0-22.6,2.6-30.5,9.8c-4.8,4.3-7.1,10.3-6.3,18.8   c3.1,32.5,22.7,64.9,28.2,69.6c5.5,4.7,15.6,10.6,31.3,12.1c7.8,1.2,13.7,2.3,13.7,2.3s6.6-2.3,10.2-11.7c3.5-9.4,3.1-36,3.1-36   L717,201.6C717,201.6,716.2,199.6,708.4,191z"></path>
	<path fill="#D7E49B" d="M699.8,187.1c0.8,1.2,9.8,11-19.2,17.2c-5.5,5.9-1.2,9.4,7,32.5c8.2,23.1,22.7,41.9,25,44.6   c2.3,2.7,13.7,14.1,27.4,14.1c12.9-2.3,14.5-22.3,14.5-25.8c0-3.5-3.1-23.9-7.4-31.7S735,212.1,721.3,200   C713.4,192.6,704.4,187.9,699.8,187.1z"></path>
	<path fill="#D7E49B" d="M614.7,244.4c6.8,5.5,15.6,7.5,24.1,5.7c8-1.7,15.7-7.1,20.3-13.8c1.3-1.9-1.8-3.6-3-1.8   c-4,5.9-10.9,10.5-17.8,12.1c-7.3,1.7-15.3,0-21.1-4.7c-0.7-0.6-1.8-0.7-2.5,0C614.1,242.6,614,243.9,614.7,244.4z"></path>
	<path fill="#D7E49B" d="M740.5,233.9c7.3,3.5,15,7.1,23.2,6.8c3.8-0.1,7.6-1.1,10.8-3.1c2.8-1.8,5.1-4.3,7.2-6.8   c2.3-2.6,4.7-5.5,8-6.9c0.9-0.4,1.5-1.2,1.2-2.2c-0.2-0.8-1.3-1.6-2.2-1.2c-6,2.5-9.1,8.2-13.8,12.3c-5.5,4.9-13.3,5.1-20.1,3.2   c-4.4-1.2-8.5-3.2-12.6-5.2C740.3,229.9,738.5,233,740.5,233.9z"></path>
	<path d="M627.1,276.7c-4.5,0.9-8.2,4-11.4,7.2c-1.5,1.4-2.7,3.1-3.7,4.9c-0.5,0.9-0.9,1.7-1.3,2.7c-0.4,1.1-0.5,2.1-0.5,3.2   c0,1.5,2.4,1.5,2.3,0c0-0.9,0-1.7,0.4-2.5c0.4-0.8,0.8-1.6,1.3-2.4c0.9-1.6,2-3,3.3-4.3c2.9-2.8,6.1-5.6,10.2-6.4   C629.2,278.7,628.6,276.4,627.1,276.7z"></path>
	<path fill="#6C6A68" d="M627.4,277.8c0,0-14.9,6.6-15.3,17.2c2,2.3,8.2-0.8,9.4-1.6c1.2-0.8,8.2-6.6,9-8.6   C631.3,282.9,628.6,278.6,627.4,277.8z"></path>
	<path fill="#57BE69" d="M725.7,303.6c9.7,1.1,19.5,2.3,28.9,5.2c8.8,2.7,17.1,6.8,24.6,12.1c1,0.7,2.6,0.2,3.2-0.8   c0.7-1.2,0.2-2.5-0.8-3.2c-6.1-4.3-12.7-7.8-19.7-10.5c-7.3-2.8-14.9-4.5-22.6-5.7c-4.5-0.7-9.1-1.2-13.6-1.7   c-1.3-0.1-2.3,1.2-2.3,2.3C723.3,302.6,724.4,303.4,725.7,303.6z"></path>
	<path fill="#57BE69" d="M627,280.6c0,0,9.8,2.7,18.4,8.6c0,0,11.1,7.2,17.8,15.5c2.7-0.4,10.5-1,13.7-3.4c3.2-2.4,4.4-1.7,4.8-1.1   s0,3.6,0,3.6s-9.9,5.4-11.6,6.2c-1.7,0.9-8.8,3.9-13.3-1.7c-5.8-5.4-16.2-18.7-29.7-23.1C625.4,282.6,627,280.6,627,280.6z"></path>
	<path fill="#57BE69" d="M659.1,327.2c0,0,2.1-1.8,9.9-2.6s6.6-1.2,11-0.4c2,0,3.5,0,4.3-3.5c0.8-3.5,2.7-14.1,3.1-14.9   s3.5-1.2,3.5-1.2l1.2,2.3c0,0-0.8,14.5-1.6,16c-0.8,1.6-2,6.6-7.8,6.6s-22.7,0-22.7,0L659.1,327.2z"></path>
	<path fill="#6C6A68" d="M660.6,325.2c0,0,3.9,8.6,4.3,11.3c0.4,2.7,2.7,11.7-6.6,6.6c-6.3-6.6-9.8-14.9-9.8-21.1   c0.8-3.5,3.9-3.1,4.7-2.7c0.8,0.4,4.7,3.9,5.9,6.6C659.9,325.6,660.6,325.2,660.6,325.2z"></path>
	<path d="M647.4,322.2c-0.1,9,4.2,17.3,11.3,22.7c1.2,0.9,2.4-1.1,1.2-2c-6.5-4.9-10.2-12.6-10.1-20.7   C649.8,320.7,647.5,320.7,647.4,322.2z"></path>
	<path fill="#6C6A68" d="M787.4,301.2c0,0-5.5,8.3-5.9,15.4c-0.4,7-3.1,14.5,4.7,7.1c6.3-7.1,9-12.2,9.4-21.5   C794.8,295.8,787.9,299.5,787.4,301.2z"></path>
	<path d="M785.9,326c3.4-2.8,6-6.3,7.6-10.4c1.4-3.8,2.2-7.7,2.9-11.7c0.2-1.5-2-2.1-2.3-0.6c-0.6,3.8-1.4,7.6-2.7,11.2   c-1.4,3.9-3.9,7.1-7.1,9.8C783,325.3,784.7,327,785.9,326z"></path>
	<path d="M717,234.8c0,2.2-2.2,3.9-4.5,3.9c-2.3,0-4.1-1.8-4.1-3.9s2.4-4.3,4.7-4.3C716.4,230.5,717,232.7,717,234.8z"></path>
	<path d="M728,225.2c1.3,2,1.2,4.3,0.1,5.1c-1.2,0.8-3.2-0.2-4.5-2.2c-1.3-2-1.4-4.8-0.2-5.5C725.1,221.5,726.7,223.2,728,225.2z"></path>
	<g>
		<path fill="#AB5F50" d="M798,235.3l-0.9-0.2c1.3-6.3,0.8-12.1-1.4-14.7c-0.8-1-1.7-1.4-2.8-1.4c-2,0-4.3,1.7-6.4,4.7    c-2.2,3.1-3.9,7.3-4.8,11.7l-0.9-0.2c1-4.5,2.7-8.8,4.9-12c2.3-3.3,4.8-5.1,7.2-5.1c1.4,0,2.6,0.6,3.5,1.8    c1.1,1.4,1.9,3.6,2.2,6.3C798.9,228.9,798.7,232.1,798,235.3z"></path>
		<polygon fill="#AB5F50" points="778.2,230.7 775,270.5 785,270.5 785,230.7   "></polygon>
		<polygon fill="#E59A61" points="815.8,270.5 785,270.5 778.2,230.7 809.1,230.7   "></polygon>
		<polygon fill="#88504C" points="775,270.5 784,264.5 785,270.5   "></polygon>
		<path fill="#E59A61" d="M802.3,235.3c-0.9-4.4-2.6-8.6-4.8-11.7c-1-1.5-2.1-2.7-3.2-3.5c-1.1-0.8-2.2-1.2-3.2-1.2    c-1.1,0-2,0.5-2.8,1.4c-2.2,2.7-2.7,8.4-1.4,14.7l-0.9,0.2c-0.7-3.3-0.9-6.5-0.6-9.2c0.3-2.7,1-4.9,2.2-6.3c1-1.2,2.2-1.8,3.5-1.8    c2.3,0,4.9,1.8,7.2,5.1c2.2,3.2,4,7.5,4.9,12L802.3,235.3z"></path>
	</g>
	<path d="M726.8,251.3c0.4,1.2,1.3,2.2,2.5,2.4c1.3,0.2,2.6-0.4,3.1-1.6c0.3-0.7,0.2-1.4-0.1-2c-0.1-0.3-0.5-0.4-0.8-0.2   c-0.3,0.2-0.4,0.5-0.2,0.8l0,0l0,0.1l0.1,0.2c0-0.1,0,0.1,0,0.1l0,0.2c0,0.1,0,0,0,0.1l-0.1,0.2c0,0.1,0,0.1-0.1,0.3   c-0.2,0.4-0.7,0.6-1.1,0.7c-0.2,0-0.5,0-0.7-0.1c-0.3-0.1-0.5-0.2-0.7-0.3c-0.4-0.3-0.7-0.8-0.8-1.2c-0.1-0.3-0.4-0.5-0.7-0.4   C727,250.7,726.7,251,726.8,251.3z"></path>
	<path d="M606.8,243.3c2.1,0.6,4.5,1.2,6.6,0c0.9-0.5,1.6-1.3,1.9-2.3c0.3-1,0.2-2.1,0.1-3.2c-0.1-0.6-0.1-1.3-0.5-1.9   c-0.3-0.5-0.9-0.8-1.5-0.8c-0.7,0.1-0.8,1.2,0,1.2c0.5,0,0.6,0.6,0.7,1c0.1,0.5,0.2,1.1,0.2,1.7c0,1-0.1,2.1-0.9,2.9   c-1.7,1.7-4.4,0.9-6.3,0.3C606.3,242,606,243.1,606.8,243.3z"></path>
	<path d="M614,241.6c-1.9-1.7-3.6-3.6-5.3-5.5c-0.2-0.2-0.6-0.2-0.8,0c-0.2,0.2-0.2,0.6,0,0.8c1.6,1.9,3.4,3.8,5.3,5.5   C613.8,242.9,614.6,242.1,614,241.6z"></path>
	<path d="M790.4,215.1c-0.8,1.4-1.5,2.8-1.7,4.3c-0.1,1.3,0.2,2.7,1.1,3.7c0.9,1,2.3,1.4,3.6,1.5c1.2,0.2,3.2,0.4,3.5-1.2   c0-0.3-0.1-0.6-0.4-0.7c-0.3-0.1-0.7,0.1-0.7,0.4c-0.1,0.6-0.8,0.5-1.2,0.5c-0.5,0-1-0.1-1.5-0.2c-1-0.2-2.1-0.5-2.6-1.4   c-1.3-2,0-4.5,1-6.3C791.8,215.1,790.8,214.5,790.4,215.1z"></path>
	<path fill="#ADD078" d="M696.8,139.2c-3.5,4.7-10.2,13.3-10.2,13.3s-1.6-2.8,0-5.5c1.6-2.7,4.4-8.9,5.5-10.9c1.1-2,3.6-5.4,4.3-6.5   c0.7-1,5-8.1-1.6-10.8c-2.3-0.8-5.5,0.8-5.9,0.8c-0.4-2.3-0.8-8.6-5.5-9.4c-3.1-0.4-4.3,0-5.9-0.8s-6.6-3.5-8.6,4.3   c-0.4,8.2-1.2,21.1,1.2,28.9c2,7.4,7,18,6.6,21.1c-2-3.1-6.3-9.4-6.3-10.2s-3.1-9.4-3.1-9.8s-1.6-6.3-1.6-7.8s-0.8-13.3-1.6-16.4   c-0.8-3.1-4.3-14.1-10.6-19.2c-5.5-4.7-7.4-5.9-7.4-6.3s-3.9-6.6-6.3-7.4s-9.8-2.7-11.3-4.7s-7.4-5.5-12.5,0   c-5.1,5.5-3.5,10.6-3.1,11.7c0.4,1.2,1.2,6.3,3.5,8.2c2.3,2,5.1,3.5,5.1,3.5s3.5,4.3,3.5,4.7s-0.4,0.4-1.6,0   c-1.2-0.4-3.9-0.4-4.7-1.6s-5.9-6.6-11.7-2.7c-4.7,3.9-4.7,8.6-4.3,10.2c0.4,1.6,0.8,5.5,5.1,8.6c4.3,3.1,9.4,5.5,10.6,5.5   c1.2,0,6.6,2.7,7.4,3.5c-1.2,0-9.8-2.3-11.7-2c-2,0.4-8.2,6.6-6.6,10.6c-1.6,1.2-5.9,5.5-1.6,11.3c4.3,5.9,8.6,8.6,11.3,10.6   c2.7,2,11,5.9,16.4,7.8s9,1.6,10.2,2c1.2,0.4,5.5,0.4,6.6,0.8c1.2,0.4,2.3,0.8,5.1,2.7c2.7,2,8.6,5.5,10.2,8.6s4.3,7.8,5.1,9.4   c0.8,1.6,28-4.1,28-4.1s-5.1-16.4-5.5-21.9s-1.3-7.6-1.3-8.2c0-0.6-0.8-0.2-1.1,0l-0.2-0.3c0,0-0.7,0.1,1.6-1.8   c2.3-2,6.6-5.1,8.2-6.3s3.5-2.3,5.1-3.9S709.7,135.7,696.8,139.2z M637.6,165.6c-4.3-0.8-4.3-2-9.4-2.7c-5.1-0.8-10.2-2-10.2-2   s19.3-0.8,21.8,0c2.5,0.8,3.7,0.8,5.6,2.3c2,1.6,6.3,4.7,7.8,6.6C649.7,168.3,641.9,166.4,637.6,165.6z M631.3,151.1   c5.5,5.1,19.2,8.6,19.2,8.6s-2.3,0.8-8.2-1.2C636.6,156.7,631.6,151.5,631.3,151.1z M661.4,133.9c-0.4-0.4-2.7-5.1-3.5-8.2   s-1.6-5.9-7.8-14.9s-16.8-19.2-16.8-19.2c6.6,2.3,10.6,6.3,14.3,9.5c3.8,3.3,11.5,13.2,13,17.1C662.2,122.2,662.2,128,661.4,133.9z    M675.1,191.8c0,0-6.3-10.2-8.6-12.1c1.2,0,3.5,1.8,4.3,2.7c0.8,0.8,4.1,5.9,4.6,6.7c0.5,0.8,1.2,1.5,1.2,1.5L675.1,191.8z    M684.1,138.2c0.4,0.4,1.2,5.1,0.8,5.9c-0.4,0.8-0.8,2.7-2.7,3.5C681.8,145.6,684.1,138.2,684.1,138.2z M695.4,187.4   c-0.4-0.9-3.5-5.4-4.3-6.5c-0.8-1.2-3.9-7.8-5.1-10.2s1.6-5.9,3.1-7.4C689.2,168.4,694.8,185.7,695.4,187.4z M684.1,161.7   c-2.3,5,1.9,16.9,2,17.2c-1.2-1.2-3.1-6.6-5.1-10.6c-2-3.9-0.4-5.5-0.4-6.3s2.7-6.3,4.3-8.6c1.2-2,4.5,0.4,4.5,0.4s0.2,0,4.1,0   C691.2,156.2,686.8,159.3,684.1,161.7z"></path>
	<path fill="#2F6B23" d="M690.9,200.4c-4.7,1.1-9.4,1.9-14.3,2.1c-2,0.1-4.6,0.4-6.3-0.9c-1.8-1.4-1.1-3.6,0.5-4.8   c1.7-1.3,4.1-1.8,6.1-2.4c2.3-0.7,4.6-1.4,6.8-2.2c1.1-0.3,2.2-0.7,3.3-1c1-0.3,2.4-1,3.4-0.9c1.8,0.2-2.1,3.6-2.7,4   c-1.9,1.3-4.1,2.2-6.4,2.4c-1,0.1-2.1,0.2-3.1,0c-0.5-0.1-2.5-1.1-1.5-1.8c1.2-0.8,0.1-2.9-1.2-2c-2.2,1.4-1.5,4.5,0.6,5.6   c2.3,1.2,5.5,0.8,7.9,0.1c2.7-0.7,5.1-2.1,7.1-4.1c1.6-1.5,3.5-4.8,0.6-6.2c-1.1-0.5-2.4-0.2-3.5,0.1c-1.7,0.5-3.4,1.1-5.1,1.6   c-3.3,1-6.7,2.1-10,3.2c-2.5,0.8-5.1,2-6.1,4.6c-1.1,2.6,0.2,5.2,2.6,6.5c3,1.5,7,0.8,10.1,0.5c3.9-0.4,7.7-1,11.5-2   C692.9,202.3,692.3,200,690.9,200.4z"></path>
	<path fill="#2F6B23" d="M682.8,113.5c2.1,12.5,3,25.2,2.9,37.9c0,1.5,2.3,1.5,2.3,0c0.1-12.9-0.9-25.8-3-38.5   C684.8,111.4,682.5,112,682.8,113.5z"></path>
	<path fill="#2F6B23" d="M687.2,157.4c2.3-6.3,7.4-11.7,13.7-14.3c0.6-0.2,1-0.8,0.8-1.4c-0.2-0.6-0.9-1.1-1.4-0.8   c-7.1,2.9-12.7,8.7-15.3,15.9C684.4,158.2,686.6,158.8,687.2,157.4z"></path>
	<path fill="#2F6B23" d="M679.1,189.1c-5.6-9.6-13.6-17.7-23.1-23.4c-1.3-0.8-2.5,1.3-1.2,2c9.2,5.5,16.9,13.3,22.3,22.5   C677.9,191.6,679.9,190.4,679.1,189.1z"></path>
	<path fill="#2F6B23" d="M673,181c3.2,2.1,7.2,2.8,10.9,2c0.6-0.1,1-0.9,0.8-1.4c-0.2-0.6-0.8-1-1.4-0.8c-3.1,0.7-6.4,0-9.1-1.7   c-0.5-0.3-1.3-0.1-1.6,0.4C672.2,180,672.4,180.7,673,181z"></path>
	<path fill="#2F6B23" d="M659.5,172.1c-15.7-2.2-30.4-8.3-44.9-14.5c-1.4-0.6-2.6,1.4-1.2,2c14.7,6.2,29.5,12.5,45.4,14.7   C660.3,174.5,661,172.3,659.5,172.1z"></path>
	<path fill="#2F6B23" d="M651.1,160.3c-13-4.4-26.3-7.6-39.9-9.5c-1.5-0.2-2.1,2.1-0.6,2.3c13.6,1.9,26.9,5.1,39.9,9.5   C652,163,652.6,160.8,651.1,160.3z"></path>
	<path fill="#2F6B23" d="M636.6,155.5c-8.7-4-17.5-7.9-26.2-11.9c-1.4-0.6-2.6,1.4-1.2,2c8.7,4,17.5,7.9,26.2,11.9   C636.8,158.1,638,156.1,636.6,155.5z"></path>
	<path fill="#2F6B23" d="M646.7,155c-10-5.5-19.9-11-29.9-16.4c-1.3-0.7-2.5,1.3-1.2,2c10,5.5,19.9,11,29.9,16.4   C646.9,157.8,648,155.8,646.7,155z"></path>
	<path fill="#2F6B23" d="M627.5,98.1c12.3,8.7,23.6,18.8,33.5,30.1c1,1.1,2.7-0.5,1.7-1.7c-10.1-11.5-21.5-21.7-34-30.5   C627.4,95.2,626.2,97.2,627.5,98.1z"></path>
	<path fill="#2F6B23" d="M630.9,91.4c12.5,7.1,27.1,15.5,30.5,30.7c1,4.6,0.8,9.4-0.2,14c-0.3,1.5,1.9,2.1,2.3,0.6   c1.7-8,1-16.1-3-23.4c-3.8-6.9-9.7-12.2-16.2-16.5c-3.9-2.7-8.1-5-12.2-7.4C630.8,88.6,629.6,90.6,630.9,91.4z"></path>
	<path fill="#2F6B23" d="M619.3,91.9c1.9,6,5.9,10.7,10.1,15.2c4.7,5,9.2,10.2,13.9,15.2c4.5,4.7,9.7,8.6,14.5,13   c4.8,4.4,8.4,9.4,10.3,15.7c2.1,7,2.5,14.3,2.7,21.5c0.6-0.3,1.2-0.7,1.8-1c-8.2-4.2-15-10.8-19.4-18.9c-4.9-9-6.6-19.2-10.8-28.5   c-2.2-4.8-5.1-9.4-9.2-12.9c-1.1-1-2.8,0.7-1.7,1.7c7.7,6.7,10.7,16.6,13.7,26c1.6,5,3.3,9.9,5.7,14.5c2.1,4,4.9,7.7,8,10.9   c3.6,3.7,7.8,6.8,12.4,9.2c0.8,0.4,1.8-0.1,1.8-1c-0.2-6.5-0.5-13.1-2.1-19.4c-1.5-6.1-4.2-11.7-8.5-16.3   c-4.4-4.8-9.8-8.4-14.5-12.9c-5.1-4.8-9.4-10.3-14.2-15.4c-4.9-5.2-10.2-10.3-12.4-17.3C621.1,89.9,618.9,90.5,619.3,91.9z"></path>
	<path fill="#2F6B23" d="M642.9,128.4c-4.3-4-8.9-7.8-13.6-11.3c-4.4-3.2-9.1-7.1-14.7-7.5c-1.5-0.1-1.5,2.2,0,2.3   c2.6,0.2,5,1.4,7.2,2.8c2.3,1.4,4.5,3,6.7,4.6c4.5,3.3,8.7,6.9,12.8,10.7C642.4,131.1,644,129.4,642.9,128.4z"></path>
	<path fill="#2F6B23" d="M632.1,122.1c-5.3,0.9-10.8-0.4-15.3-3.3c-1.3-0.8-2.4,1.2-1.2,2c5,3.3,11.2,4.5,17.1,3.6   C634.2,124.1,633.6,121.8,632.1,122.1z"></path>
	<path fill="#2F6B23" d="M608.5,116.2c2.2,7,7.1,13.1,13.5,16.7c7.3,4.1,15.7,4.9,23.9,5.6c1.5,0.1,1.5-2.2,0-2.3   c-7.6-0.7-15.5-1.4-22.3-5.1c-6.1-3.3-10.7-8.9-12.8-15.5C610.3,114.1,608.1,114.7,608.5,116.2z"></path>
	<path fill="#2F6B23" d="M619.9,137.5c9.4,1.1,18.6,4,26.9,8.4c1.3,0.7,2.5-1.3,1.2-2c-8.7-4.7-18.3-7.6-28.1-8.8   C618.4,134.9,618.4,137.3,619.9,137.5z"></path>
	<path fill="#2F6B23" d="M691.1,186.8c-6-8-9.8-17.3-12.9-26.8c-3.3-10-6.2-20.2-5.9-30.8c0.2-5.9,1.2-11.8,3-17.5   c0.5-1.4-1.8-2.1-2.3-0.6c-3.3,10.3-4,21.2-2,31.9c1,5.4,2.6,10.6,4.2,15.8c1.5,4.8,3.2,9.6,5.2,14.2c2.3,5.3,5.1,10.4,8.5,15.1   C690,189.2,692,188,691.1,186.8z"></path>
	<path d="M790.5,222.6c2.1-1.4,4.3-2.8,6.5-3.9c0.7-0.3,0.1-1.4-0.6-1c-2.3,1.2-4.5,2.5-6.5,3.9c-0.3,0.2-0.4,0.5-0.2,0.8   C789.9,222.7,790.3,222.8,790.5,222.6z"></path>
	<path d="M692.2,332.4c-21.4,0-33.7-35.7-35.1-72.4h-39.9c1.2,39,25.9,77,74.1,77c0.5,0,1,0,1.4,0v-4.6H692.2z"></path>
</g>
</svg>
